<svg width="12" height="16" viewBox="0 0 12 16" fill="none" xmlns="http://www.w3.org/2000/svg">
<path d="M10 0H2C0.895431 0 0 0.89543 0 2V14C0 15.1046 0.895431 16 2 16H10C11.1046 16 12 15.1046 12 14V2C12 0.89543 11.1046 0 10 0ZM3 4H9C9.27614 4 9.5 4.22386 9.5 4.5C9.5 4.77614 9.27614 5 9 5H3C2.72386 5 2.5 4.77614 2.5 4.5C2.5 4.22386 2.72386 4 3 4ZM2.5 6.5C2.5 6.22386 2.72386 6 3 6H9C9.27614 6 9.5 6.22386 9.5 6.5C9.5 6.77614 9.27614 7 9 7H3C2.72386 7 2.5 6.77614 2.5 6.5ZM3 8H9C9.27614 8 9.5 8.22386 9.5 8.5C9.5 8.77614 9.27614 9 9 9H3C2.72386 9 2.5 8.77614 2.5 8.5C2.5 8.22386 2.72386 8 3 8ZM3 10H6C6.27614 10 6.5 10.2239 6.5 10.5C6.5 10.7761 6.27614 11 6 11H3C2.72386 11 2.5 10.7761 2.5 10.5C2.5 10.2239 2.72386 10 3 10Z" fill="black"/>
</svg>
